<?xml version="1.0" encoding="utf-8"?>
<!-- Generator: Adobe Illustrator 27.7.0, SVG Export Plug-In . SVG Version: 6.00 Build 0)  -->
<svg version="1.1" id="Layer_1" xmlns="http://www.w3.org/2000/svg" xmlns:xlink="http://www.w3.org/1999/xlink" x="0px" y="0px"
	 viewBox="0 0 144 41.59" style="enable-background:new 0 0 144 41.59;" xml:space="preserve">
<style type="text/css">
	.st0{fill:#29ABE2;}
	.st1{fill:#636467;}
</style>
<g>
	<path class="st0" d="M26.73,0C11.99,0,0,12,0,26.73c0,8.19,6.66,14.86,14.85,14.86c8.19,0,14.85-6.67,14.85-14.86
		c0-1.64-1.33-2.97-2.97-2.97c-1.64,0-2.97,1.33-2.97,2.97c0,4.92-3.99,8.91-8.91,8.91c-4.91,0-8.91-4-8.91-8.91
		c0-11.46,9.33-20.79,20.79-20.79c11.47,0,20.79,9.33,20.79,20.79c0,1.65,1.33,2.97,2.97,2.97c1.64,0,2.97-1.32,2.97-2.97
		C53.46,12,41.47,0,26.73,0"/>
	<path class="st0" d="M26.73,11.88c-8.19,0-14.85,6.66-14.85,14.85c0,1.64,1.33,2.97,2.97,2.97c1.64,0,2.97-1.32,2.97-2.97
		c0-4.92,4-8.91,8.91-8.91c4.92,0,8.91,3.99,8.91,8.91c0,1.64,1.33,2.97,2.97,2.97c1.64,0,2.97-1.32,2.97-2.97
		C41.58,18.55,34.92,11.88,26.73,11.88"/>
	<polygon class="st1" points="63.19,9.54 68.64,9.54 68.64,10.74 64.57,10.74 64.57,12.81 68.14,12.81 68.14,13.94 64.57,13.94 
		64.57,17.44 63.19,17.44 	"/>
	<path class="st1" d="M69.08,14.58c0-1.75,1.05-3.01,2.89-3.01c1.84,0,2.89,1.26,2.89,3.01c0,1.76-1.05,3.02-2.89,3.02
		C70.13,17.6,69.08,16.34,69.08,14.58 M73.6,14.58c0-0.98-0.5-2.01-1.63-2.01c-1.13,0-1.63,1.03-1.63,2.01c0,1,0.5,2.02,1.63,2.02
		C73.1,16.6,73.6,15.57,73.6,14.58"/>
	<path class="st1" d="M75.69,11.72h1.19v0.84l0.02,0.02c0.38-0.63,1.03-1.02,1.78-1.02c1.24,0,2.02,0.66,2.02,1.95v3.93h-1.26v-3.6
		c-0.02-0.9-0.38-1.28-1.12-1.28c-0.84,0-1.38,0.66-1.38,1.51v3.37h-1.26V11.72z"/>
	<path class="st1" d="M87.2,17.44h-1.2v-0.77h-0.02c-0.33,0.65-1.05,0.93-1.77,0.93c-1.8,0-2.68-1.34-2.68-3.05
		c0-2.07,1.23-2.98,2.48-2.98c0.72,0,1.51,0.26,1.9,0.9h0.02V9.54h1.26V17.44z M84.38,16.6c1.13,0,1.6-1.03,1.6-2.02
		c0-1.26-0.61-2.01-1.58-2.01c-1.18,0-1.6,1.05-1.6,2.08C82.8,15.63,83.29,16.6,84.38,16.6"/>
	<path class="st1" d="M93.14,16.17c0,0.31,0.07,0.43,0.3,0.43c0.08,0,0.18,0,0.31-0.02v0.87c-0.19,0.07-0.59,0.14-0.8,0.14
		c-0.51,0-0.87-0.18-0.97-0.7c-0.5,0.49-1.3,0.7-1.98,0.7c-1.03,0-1.96-0.55-1.96-1.67c0-1.43,1.14-1.66,2.2-1.78
		c0.91-0.16,1.71-0.07,1.71-0.81c0-0.65-0.67-0.78-1.18-0.78c-0.71,0-1.21,0.29-1.26,0.91h-1.26c0.09-1.47,1.34-1.9,2.6-1.9
		c1.12,0,2.29,0.45,2.29,1.66V16.17z M91.88,14.58c-0.39,0.25-1,0.24-1.55,0.34c-0.54,0.09-1.03,0.29-1.03,0.95
		c0,0.56,0.72,0.73,1.16,0.73c0.55,0,1.42-0.29,1.42-1.08V14.58z"/>
	<path class="st1" d="M93.7,11.72h0.95v-1.72h1.26v1.72h1.14v0.94h-1.14v3.05c0,0.52,0.04,0.79,0.61,0.79c0.18,0,0.35,0,0.53-0.05
		v0.97c-0.28,0.02-0.54,0.07-0.82,0.07c-1.32,0-1.56-0.51-1.58-1.46v-3.37H93.7V11.72z"/>
	<path class="st1" d="M97.77,9.54h1.26v1.2h-1.26V9.54z M97.77,11.72h1.26v5.72h-1.26V11.72z"/>
	<path class="st1" d="M99.92,14.58c0-1.75,1.05-3.01,2.89-3.01c1.84,0,2.89,1.26,2.89,3.01c0,1.76-1.05,3.02-2.89,3.02
		C100.97,17.6,99.92,16.34,99.92,14.58 M104.43,14.58c0-0.98-0.5-2.01-1.63-2.01c-1.13,0-1.63,1.03-1.63,2.01
		c0,1,0.5,2.02,1.63,2.02C103.94,16.6,104.43,15.57,104.43,14.58"/>
	<path class="st1" d="M106.52,11.72h1.19v0.84l0.02,0.02c0.38-0.63,1.03-1.02,1.78-1.02c1.24,0,2.02,0.66,2.02,1.95v3.93h-1.26v-3.6
		c-0.02-0.9-0.38-1.28-1.12-1.28c-0.84,0-1.38,0.66-1.38,1.51v3.37h-1.26V11.72z"/>
	<path class="st1" d="M63.21,20h4.69c1.73,0,2.87,0.79,2.87,2.39c0,0.97-0.5,1.68-1.38,2.06v0.03c1.18,0.26,1.81,1.18,1.81,2.49
		c0,1.51-1.05,2.69-3.56,2.69h-4.43V20z M64.9,24.05h2.76c0.81,0,1.42-0.47,1.42-1.34c0-0.98-0.5-1.32-1.42-1.32H64.9V24.05z
		 M64.9,28.28h2.99c1.03,0,1.62-0.55,1.62-1.53c0-0.95-0.59-1.49-1.62-1.49H64.9V28.28z"/>
	<path class="st1" d="M72.24,22.67h1.45v1.35h0.03c0.18-0.74,1.1-1.54,2.04-1.54c0.35,0,0.45,0.03,0.58,0.04v1.49
		c-0.22-0.03-0.45-0.07-0.66-0.07c-1.05,0-1.89,0.85-1.89,2.39v3.33h-1.54V22.67z"/>
	<path class="st1" d="M82.59,28.1c0,0.38,0.08,0.53,0.36,0.53c0.09,0,0.22,0,0.38-0.03v1.07c-0.23,0.08-0.72,0.18-0.97,0.18
		c-0.62,0-1.07-0.22-1.19-0.85c-0.61,0.6-1.6,0.85-2.42,0.85c-1.26,0-2.39-0.68-2.39-2.04c0-1.74,1.39-2.03,2.69-2.18
		c1.11-0.2,2.1-0.08,2.1-0.99c0-0.8-0.82-0.95-1.45-0.95c-0.86,0-1.47,0.35-1.54,1.11h-1.54c0.11-1.8,1.64-2.33,3.18-2.33
		c1.37,0,2.8,0.56,2.8,2.03V28.1z M81.04,26.16c-0.47,0.31-1.22,0.3-1.89,0.42c-0.66,0.11-1.26,0.35-1.26,1.16
		c0,0.69,0.88,0.89,1.42,0.89c0.68,0,1.73-0.35,1.73-1.33V26.16z"/>
	<path class="st1" d="M84.02,20h1.54v1.46h-1.54V20z M84.02,22.67h1.54v6.99h-1.54V22.67z"/>
	<path class="st1" d="M86.97,22.67h1.46v1.03l0.03,0.03c0.46-0.77,1.26-1.24,2.18-1.24c1.52,0,2.47,0.81,2.47,2.38v4.8h-1.54v-4.39
		c-0.03-1.1-0.46-1.57-1.37-1.57c-1.03,0-1.69,0.81-1.69,1.84v4.12h-1.54V22.67z"/>
	<path class="st1" d="M104.68,23.07c-0.28-1.11-1-1.92-2.41-1.92c-2.07,0-2.93,1.83-2.93,3.68c0,1.85,0.87,3.68,2.93,3.68
		c1.5,0,2.33-1.12,2.46-2.53h1.65c-0.14,2.31-1.77,3.91-4.11,3.91c-2.89,0-4.63-2.3-4.63-5.06s1.73-5.06,4.63-5.06
		c2.18,0.01,3.89,1.22,4.1,3.3H104.68z"/>
	<path class="st1" d="M113.29,28.1c0,0.38,0.08,0.53,0.36,0.53c0.09,0,0.22,0,0.38-0.03v1.07c-0.23,0.08-0.72,0.18-0.97,0.18
		c-0.62,0-1.07-0.22-1.19-0.85c-0.61,0.6-1.6,0.85-2.42,0.85c-1.26,0-2.39-0.68-2.39-2.04c0-1.74,1.39-2.03,2.69-2.18
		c1.11-0.2,2.1-0.08,2.1-0.99c0-0.8-0.82-0.95-1.45-0.95c-0.86,0-1.47,0.35-1.54,1.11h-1.54c0.11-1.8,1.64-2.33,3.18-2.33
		c1.37,0,2.8,0.56,2.8,2.03V28.1z M111.74,26.16c-0.47,0.31-1.22,0.3-1.89,0.42c-0.66,0.11-1.26,0.35-1.26,1.16
		c0,0.69,0.88,0.89,1.42,0.89c0.68,0,1.73-0.35,1.73-1.33V26.16z"/>
	<path class="st1" d="M114.68,22.67h1.46v1.03l0.03,0.03c0.46-0.77,1.26-1.24,2.18-1.24c1.52,0,2.47,0.81,2.47,2.38v4.8h-1.54v-4.39
		c-0.03-1.1-0.46-1.57-1.37-1.57c-1.03,0-1.69,0.81-1.69,1.84v4.12h-1.54V22.67z"/>
	<path class="st1" d="M128.02,28.1c0,0.38,0.08,0.53,0.36,0.53c0.09,0,0.22,0,0.38-0.03v1.07c-0.23,0.08-0.72,0.18-0.97,0.18
		c-0.62,0-1.07-0.22-1.19-0.85c-0.61,0.6-1.6,0.85-2.42,0.85c-1.26,0-2.39-0.68-2.39-2.04c0-1.74,1.39-2.03,2.69-2.18
		c1.11-0.2,2.1-0.08,2.1-0.99c0-0.8-0.83-0.95-1.45-0.95c-0.87,0-1.47,0.35-1.54,1.11h-1.54c0.11-1.8,1.63-2.33,3.18-2.33
		c1.37,0,2.8,0.56,2.8,2.03V28.1z M126.48,26.16c-0.47,0.31-1.22,0.3-1.89,0.42c-0.66,0.11-1.26,0.35-1.26,1.16
		c0,0.69,0.88,0.89,1.42,0.89c0.68,0,1.73-0.35,1.73-1.33V26.16z"/>
	<path class="st1" d="M136,29.66h-1.46v-0.95h-0.03c-0.41,0.8-1.29,1.13-2.16,1.13c-2.21,0-3.27-1.64-3.27-3.73
		c0-2.53,1.5-3.64,3.03-3.64c0.88,0,1.85,0.32,2.33,1.1h0.03V20H136V29.66z M132.55,28.63c1.38,0,1.96-1.26,1.96-2.47
		c0-1.54-0.74-2.46-1.93-2.46c-1.45,0-1.96,1.28-1.96,2.54C130.62,27.44,131.21,28.63,132.55,28.63"/>
	<path class="st1" d="M143.26,28.1c0,0.38,0.08,0.53,0.36,0.53c0.09,0,0.22,0,0.38-0.03v1.07c-0.23,0.08-0.72,0.18-0.97,0.18
		c-0.62,0-1.07-0.22-1.19-0.85c-0.61,0.6-1.6,0.85-2.42,0.85c-1.26,0-2.39-0.68-2.39-2.04c0-1.74,1.39-2.03,2.69-2.18
		c1.11-0.2,2.1-0.08,2.1-0.99c0-0.8-0.83-0.95-1.45-0.95c-0.87,0-1.47,0.35-1.54,1.11h-1.54c0.11-1.8,1.63-2.33,3.18-2.33
		c1.37,0,2.8,0.56,2.8,2.03V28.1z M141.72,26.16c-0.47,0.31-1.22,0.3-1.89,0.42c-0.66,0.11-1.26,0.35-1.26,1.16
		c0,0.69,0.88,0.89,1.42,0.89c0.68,0,1.73-0.35,1.73-1.33V26.16z"/>
	<polygon class="st1" points="63.19,32.27 68.64,32.27 68.64,33.47 64.57,33.47 64.57,35.54 68.14,35.54 68.14,36.67 64.57,36.67 
		64.57,40.17 63.19,40.17 	"/>
	<path class="st1" d="M69.08,37.31c0-1.75,1.05-3.01,2.89-3.01c1.84,0,2.89,1.26,2.89,3.01c0,1.76-1.05,3.02-2.89,3.02
		C70.13,40.33,69.08,39.07,69.08,37.31 M73.6,37.31c0-0.98-0.5-2.01-1.63-2.01c-1.13,0-1.63,1.03-1.63,2.01c0,1,0.5,2.02,1.63,2.02
		C73.1,39.33,73.6,38.3,73.6,37.31"/>
	<path class="st1" d="M80.71,40.17h-1.24v-0.8h-0.02c-0.31,0.58-1,0.95-1.63,0.95c-1.49,0-2.13-0.75-2.13-2.25v-3.63h1.26v3.51
		c0,1.01,0.41,1.37,1.1,1.37c1.05,0,1.4-0.68,1.4-1.56v-3.32h1.26V40.17z"/>
	<path class="st1" d="M81.81,34.45h1.19v0.84l0.02,0.02c0.38-0.63,1.03-1.02,1.78-1.02c1.24,0,2.02,0.66,2.02,1.95v3.93h-1.26v-3.59
		c-0.02-0.9-0.38-1.28-1.12-1.28c-0.84,0-1.38,0.66-1.38,1.51v3.37h-1.26V34.45z"/>
	<path class="st1" d="M93.33,40.17h-1.2V39.4h-0.02c-0.33,0.65-1.05,0.93-1.77,0.93c-1.8,0-2.68-1.34-2.68-3.05
		c0-2.07,1.23-2.98,2.48-2.98c0.72,0,1.51,0.26,1.9,0.89h0.02v-2.92h1.26V40.17z M90.51,39.33c1.13,0,1.6-1.03,1.6-2.02
		c0-1.26-0.61-2.01-1.58-2.01c-1.18,0-1.6,1.05-1.6,2.08C88.93,38.36,89.41,39.33,90.51,39.33"/>
	<path class="st1" d="M99.27,38.9c0,0.31,0.07,0.43,0.3,0.43c0.08,0,0.18,0,0.31-0.02v0.87c-0.19,0.07-0.59,0.14-0.8,0.14
		c-0.51,0-0.88-0.18-0.97-0.7c-0.5,0.49-1.31,0.7-1.98,0.7c-1.03,0-1.96-0.55-1.96-1.67c0-1.43,1.14-1.66,2.2-1.78
		c0.91-0.17,1.72-0.07,1.72-0.81c0-0.65-0.67-0.77-1.18-0.77c-0.71,0-1.21,0.29-1.26,0.91h-1.26c0.09-1.47,1.34-1.9,2.6-1.9
		c1.12,0,2.29,0.45,2.29,1.66V38.9z M98.01,37.31c-0.39,0.25-1,0.24-1.55,0.34c-0.54,0.09-1.03,0.29-1.03,0.95
		c0,0.56,0.72,0.73,1.16,0.73c0.55,0,1.42-0.29,1.42-1.08V37.31z"/>
	<path class="st1" d="M99.83,34.45h0.95v-1.72h1.26v1.72h1.14v0.94h-1.14v3.05c0,0.52,0.04,0.79,0.61,0.79c0.18,0,0.35,0,0.53-0.04
		v0.97c-0.28,0.02-0.54,0.07-0.82,0.07c-1.32,0-1.56-0.51-1.58-1.46v-3.38h-0.95V34.45z"/>
	<path class="st1" d="M103.9,32.27h1.26v1.19h-1.26V32.27z M103.9,34.45h1.26v5.72h-1.26V34.45z"/>
	<path class="st1" d="M106.05,37.31c0-1.75,1.05-3.01,2.89-3.01c1.84,0,2.89,1.26,2.89,3.01c0,1.76-1.05,3.02-2.89,3.02
		C107.1,40.33,106.05,39.07,106.05,37.31 M110.56,37.31c0-0.98-0.5-2.01-1.63-2.01c-1.13,0-1.63,1.03-1.63,2.01
		c0,1,0.5,2.02,1.63,2.02C110.06,39.33,110.56,38.3,110.56,37.31"/>
	<path class="st1" d="M112.65,34.45h1.19v0.84l0.02,0.02c0.38-0.63,1.03-1.02,1.78-1.02c1.24,0,2.02,0.66,2.02,1.95v3.93h-1.26
		v-3.59c-0.02-0.9-0.38-1.28-1.12-1.28c-0.84,0-1.38,0.66-1.38,1.51v3.37h-1.26V34.45z"/>
</g>
</svg>
