<?xml version="1.0" encoding="UTF-8"?>
<svg xmlns="http://www.w3.org/2000/svg" version="1.1" viewBox="0 0 32 32">
  <defs>
    <style>
      .cls-1 {
        fill: #fdb733;
      }
    </style>
  </defs>
  <!-- Generator: Adobe Illustrator 28.6.0, SVG Export Plug-In . SVG Version: 1.2.0 Build 709)  -->
  <g>
    <g id="Layer_1">
      <path class="cls-1" d="M23,10.8c-.3-.8-.9-1.4-1.7-1.7-.5-.2-1.1-.3-1.7-.3-.9,0-1.2,0-3.6,0h0c-2.4,0-2.7,0-3.6,0-.6,0-1.1.1-1.7.3-.8.3-1.4.9-1.7,1.7-.2.5-.3,1.1-.3,1.7,0,.9,0,1.2,0,3.6s0,2.7,0,3.6c0,.6.1,1.1.3,1.7.3.8.9,1.4,1.7,1.7.5.2,1.1.3,1.7.3.9,0,1.2,0,3.6,0s2.7,0,3.6,0c.6,0,1.1-.1,1.7-.3.8-.3,1.4-.9,1.7-1.7.2-.5.3-1.1.3-1.7,0-.9,0-1.2,0-3.6s0-2.7,0-3.6c0-.6-.1-1.1-.3-1.7ZM16,20.7c-2.5,0-4.6-2.1-4.6-4.6s2.1-4.6,4.6-4.6,4.6,2.1,4.6,4.6-2.1,4.6-4.6,4.6ZM20.8,12.4c-.6,0-1.1-.5-1.1-1.1s.5-1.1,1.1-1.1,1.1.5,1.1,1.1-.5,1.1-1.1,1.1Z"/>
      <path class="cls-1" d="M16,0C7.2,0,0,7.2,0,16s7.2,16,16,16,16-7.2,16-16S24.8,0,16,0ZM25,19.7c0,.7-.2,1.5-.4,2.2-.5,1.2-1.4,2.2-2.6,2.6-.7.3-1.4.4-2.2.4-1,0-1.3,0-3.7,0s-2.7,0-3.7,0c-.7,0-1.5-.2-2.2-.4-1.2-.5-2.2-1.4-2.6-2.6-.3-.7-.4-1.4-.5-2.1,0-1,0-1.3,0-3.7s0-2.7,0-3.7c0-.7.2-1.5.4-2.2.5-1.2,1.4-2.2,2.6-2.6.7-.3,1.4-.4,2.2-.4,1,0,1.3,0,3.7,0h0c2.4,0,2.7,0,3.7,0,.7,0,1.5.2,2.2.4,1.2.5,2.2,1.4,2.6,2.6.3.7.4,1.4.4,2.2,0,1,0,1.3,0,3.7s0,2.7,0,3.7Z"/>
      <path class="cls-1" d="M16,13.1c-1.6,0-3,1.3-3,3s1.3,3,3,3h0c1.6,0,3-1.3,3-3s-1.3-3-3-3Z"/>
    </g>
  </g>
</svg>