<?xml version="1.0" encoding="UTF-8"?>
<svg xmlns="http://www.w3.org/2000/svg" version="1.1" viewBox="0 0 32 32">
  <defs>
    <style>
      .cls-1 {
        fill: #f7de03;
      }
    </style>
  </defs>
  <!-- Generator: Adobe Illustrator 28.6.0, SVG Export Plug-In . SVG Version: 1.2.0 Build 709)  -->
  <g>
    <g id="Layer_1">
      <path class="cls-1" d="M16,0C7.2,0,0,7.2,0,16s7.2,16,16,16,16-7.2,16-16S24.8,0,16,0ZM12.6,22h-3.4v-10.3h3.4v10.3ZM10.9,10.3h0c-1.2,0-1.9-.8-1.9-1.8s.8-1.8,1.9-1.8,1.9.8,1.9,1.8c0,1-.7,1.8-1.9,1.8ZM25,22h-3.4v-5.5c0-1.4-.5-2.3-1.7-2.3s-1.5.6-1.8,1.3c0,.2-.1.5-.1.8v5.8h-3.4s0-9.3,0-10.3h3.4v1.5c.5-.7,1.3-1.7,3.1-1.7s3.9,1.5,3.9,4.6v5.9Z"/>
    </g>
  </g>
</svg>