<?xml version="1.0" encoding="UTF-8"?>
<svg xmlns="http://www.w3.org/2000/svg" version="1.1" viewBox="0 0 32 32">
  <defs>
    <style>
      .cls-1 {
        fill: #7ac143;
      }
    </style>
  </defs>
  <!-- Generator: Adobe Illustrator 28.6.0, SVG Export Plug-In . SVG Version: 1.2.0 Build 709)  -->
  <g>
    <g id="Layer_1">
      <g>
        <path class="cls-1" d="M14.5,12.1c-1-1.4-2-2.9-2.9-4.3,0,0,0-.1-.2-.1-.7,0-1.5,0-2.2,0h-.1s0,0,0,0c1.3,1.9,2.5,3.7,3.8,5.5,1,1.5,2.1,3,3.1,4.5,1.5,2.1,2.9,4.3,4.4,6.4,0,0,0,0,.2,0,.8,0,1.5,0,2.3,0h.1c0,0,0,0,0-.1-.2-.3-.4-.6-.6-.9-1.5-2.2-3-4.4-4.6-6.6-1-1.5-2.1-3-3.1-4.5Z"/>
        <path class="cls-1" d="M16,0C7.2,0,0,7.2,0,16s7.2,16,16,16,16-7.2,16-16S24.8,0,16,0ZM25.1,25.5c-1.8,0-3.5,0-5.3,0,0,0-.1,0-.2,0-1.6-2.3-3.2-4.6-4.8-6.9-.1-.2-.2-.3-.3-.5,0,0,0,0,0,0-2.1,2.5-4.2,4.9-6.3,7.4,0,0,0,0-.1,0-.5,0-.9,0-1.4,0h-.1c2.4-2.8,4.9-5.7,7.3-8.5-2.4-3.5-4.8-7-7.3-10.6,0,0,0,0,0,0,1.8,0,3.6,0,5.4,0,0,0,0,0,.1,0,1.1,1.6,2.2,3.2,3.3,4.8.5.7,1,1.4,1.5,2.2,0,0,0,0,0,0,.3-.3.5-.6.8-.9,1.7-2,3.5-4.1,5.2-6.1,0,0,0,0,.1,0,.5,0,1,0,1.5,0,0,0,0,0,0,0-2.3,2.7-4.6,5.4-6.9,8.1,2.5,3.7,5.1,7.3,7.6,11h-.1Z"/>
      </g>
    </g>
  </g>
</svg>